<?xml version="1.0" standalone="no"?>
<!DOCTYPE svg PUBLIC "-//W3C//DTD SVG 20010904//EN"
 "http://www.w3.org/TR/2001/REC-SVG-20010904/DTD/svg10.dtd">
<svg version="1.0" xmlns="http://www.w3.org/2000/svg"
 width="1024.000000pt" height="1024.000000pt" viewBox="0 0 1024.000000 1024.000000"
 preserveAspectRatio="xMidYMid meet">

<g transform="translate(0.000000,1024.000000) scale(0.100000,-0.100000)"
fill="#000000" stroke="none">
<path d="M6752 9617 c10 -7 43 -27 75 -45 64 -36 242 -166 344 -252 37 -30 90
-73 118 -95 50 -39 359 -354 437 -446 89 -105 144 -181 144 -198 0 -25 -28
-48 -44 -35 -50 36 -70 47 -121 65 -63 22 -121 36 -205 49 -30 5 -82 14 -115
20 -33 6 -102 15 -152 19 -91 9 -97 11 -315 120 -212 105 -287 137 -458 201
-41 15 -115 44 -163 64 -48 20 -93 36 -100 36 -20 0 16 -27 83 -61 36 -18 96
-53 135 -76 38 -24 73 -43 78 -43 5 0 32 -15 60 -34 29 -18 67 -41 85 -50 83
-42 101 -52 165 -88 37 -21 67 -45 67 -52 0 -22 -40 -35 -155 -52 -60 -8 -171
-31 -245 -51 -181 -47 -267 -61 -580 -93 -324 -34 -432 -56 -506 -102 -22 -14
-48 -28 -58 -31 -10 -4 -16 -10 -13 -14 4 -3 23 2 44 11 68 31 77 35 118 47
22 6 49 15 60 20 33 13 100 19 285 27 174 8 230 2 230 -22 0 -13 -31 -46 -43
-46 -24 0 -269 -184 -360 -270 -92 -87 -127 -156 -135 -263 -6 -90 3 -95 40
-24 18 37 22 40 29 22 12 -32 10 -92 -3 -102 -31 -23 -90 -28 -248 -21 -91 5
-201 11 -245 15 -90 9 -85 2 -67 101 5 29 14 58 21 65 6 6 11 19 11 28 0 9 7
22 15 29 8 7 15 19 15 27 0 12 -24 13 -147 9 -82 -3 -193 -9 -248 -15 -240
-23 -331 -30 -350 -24 -34 10 -73 45 -86 76 -12 29 -11 32 25 63 83 72 184
104 325 104 130 -1 209 -11 326 -44 50 -14 98 -26 108 -26 30 0 11 16 -35 29
-24 7 -69 22 -100 33 -100 33 -189 48 -301 48 -126 0 -185 -14 -296 -71 -42
-21 -81 -39 -87 -39 -21 0 -45 33 -101 136 -17 32 -47 85 -67 118 -19 32 -65
128 -101 213 -53 125 -65 164 -65 207 0 48 4 57 30 79 48 41 182 47 360 17 30
-6 102 -16 160 -24 161 -22 455 -73 555 -95 50 -11 113 -25 140 -30 202 -40
405 -88 544 -127 17 -5 22 -3 19 6 -5 17 -124 64 -375 148 -344 116 -421 135
-948 238 -110 21 -403 31 -461 15 -25 -7 -58 -29 -92 -62 l-52 -51 0 -73 c0
-122 22 -183 144 -407 26 -48 52 -90 57 -93 16 -11 10 -34 -13 -46 -11 -6 -51
-15 -87 -21 -145 -20 -198 -28 -246 -38 -27 -6 -70 -15 -95 -20 -69 -14 -120
-26 -180 -45 -30 -9 -86 -26 -125 -37 -38 -11 -78 -24 -87 -29 -10 -5 -22 -9
-28 -9 -5 0 -34 -11 -64 -25 -30 -14 -57 -25 -60 -25 -15 0 -108 -43 -296
-138 -248 -124 -218 -107 -389 -221 -59 -39 -69 -43 -110 -37 -43 6 -195 80
-236 115 -29 25 -110 78 -156 101 -21 11 -39 24 -39 29 0 4 -35 34 -77 65 -97
73 -261 230 -331 319 -30 37 -57 67 -61 67 -4 0 -12 -5 -18 -11 -9 -9 -7 -20
5 -43 45 -81 147 -219 222 -301 26 -27 50 -57 56 -65 5 -8 67 -69 139 -135 71
-66 136 -126 143 -132 7 -7 19 -13 25 -13 7 0 26 -13 43 -29 17 -16 63 -45
102 -65 76 -38 89 -50 75 -69 -5 -7 -24 -48 -42 -92 -19 -44 -51 -116 -72
-159 -22 -44 -39 -84 -39 -90 0 -7 -13 -38 -30 -71 -16 -33 -30 -65 -30 -71 0
-5 -9 -29 -20 -52 -11 -22 -20 -47 -20 -55 0 -7 -4 -17 -9 -23 -9 -10 -52
-116 -83 -208 -11 -33 -24 -65 -28 -71 -9 -12 -95 -267 -138 -410 -46 -151
-92 -305 -104 -350 -6 -22 -14 -51 -18 -65 -11 -34 -26 -93 -45 -170 -9 -36
-21 -81 -26 -100 -5 -19 -14 -57 -19 -85 -5 -27 -14 -70 -19 -95 -36 -149 -69
-329 -105 -575 -14 -93 -28 -186 -31 -205 -25 -159 -45 -434 -51 -713 -5 -198
-3 -265 7 -289 23 -56 211 -273 308 -354 111 -94 238 -194 247 -194 3 0 20
-10 37 -23 80 -57 360 -207 387 -207 10 0 46 -15 148 -61 23 -10 50 -19 59
-19 16 0 62 -13 108 -30 25 -10 119 -35 205 -55 94 -22 339 -55 456 -62 l101
-5 71 80 c39 45 82 98 96 119 13 21 35 49 50 62 14 14 26 30 26 36 0 6 18 29
40 50 22 21 40 44 40 50 0 6 18 29 40 50 22 21 40 44 40 51 0 6 7 17 15 24 21
17 19 30 -4 30 -11 0 -23 5 -26 10 -3 6 -14 10 -24 10 -9 0 -36 9 -59 20 -22
11 -46 20 -51 20 -16 0 -282 125 -326 152 -10 7 -37 24 -59 38 -47 30 -70 45
-130 88 -26 17 -50 32 -54 32 -5 0 -26 18 -47 40 -21 22 -44 40 -50 40 -13 0
-256 247 -273 277 -31 57 0 82 56 45 93 -64 490 -272 517 -272 7 0 39 -13 70
-30 31 -16 65 -30 74 -30 9 0 21 -4 26 -9 23 -22 539 -189 730 -236 251 -63
457 -97 755 -126 148 -15 760 -22 785 -10 11 6 61 13 110 16 198 12 241 16
260 25 11 5 41 11 68 14 118 14 143 19 151 27 6 5 23 9 39 9 16 0 46 4 66 9
20 5 61 14 91 21 76 15 132 30 152 41 10 5 24 9 33 9 27 0 307 94 392 131 24
11 47 19 53 19 9 0 71 26 143 61 22 11 43 19 48 19 6 0 29 9 51 20 23 11 47
20 54 20 23 0 427 212 464 244 26 22 74 42 93 38 29 -6 12 -49 -41 -107 -71
-75 -242 -239 -255 -244 -6 -2 -20 -13 -32 -24 -11 -10 -36 -29 -55 -42 -19
-12 -41 -30 -49 -39 -7 -9 -19 -16 -26 -16 -7 0 -18 -6 -24 -14 -7 -8 -39 -28
-71 -45 -32 -17 -74 -41 -93 -53 -35 -24 -153 -80 -247 -118 -30 -12 -74 -31
-98 -41 -23 -10 -51 -19 -62 -19 -10 0 -22 -4 -25 -10 -3 -5 -16 -10 -28 -10
-12 -1 -33 -7 -46 -14 l-24 -13 32 -28 c17 -16 31 -33 31 -40 0 -6 18 -29 40
-50 22 -21 40 -44 40 -50 0 -5 18 -28 40 -50 21 -22 39 -44 40 -50 0 -5 34
-48 75 -95 41 -47 87 -102 101 -122 l27 -38 108 0 c59 0 110 4 113 8 3 5 61
15 128 21 68 7 134 17 148 22 14 5 48 14 75 19 28 5 68 14 90 19 22 6 54 13
70 16 17 4 39 10 50 15 11 4 54 18 95 31 171 52 469 193 591 279 20 14 65 45
100 69 131 90 304 250 419 386 107 128 102 107 96 398 -8 455 -56 856 -176
1472 -10 56 -71 306 -104 430 -18 67 -30 66 -126 -12 -21 -17 -35 -21 -63 -16
-37 6 -77 35 -77 56 0 41 -128 386 -181 487 -87 168 -86 166 -184 304 -119
166 -353 388 -477 452 -29 15 -35 33 -17 51 11 11 -34 44 -80 58 -41 12 -129
74 -153 105 -12 17 -38 40 -58 51 -52 31 -169 69 -213 69 -21 0 -46 4 -55 9
-9 5 -34 12 -55 15 -63 10 -77 22 -77 66 0 34 4 42 33 57 49 26 99 43 130 43
16 0 36 4 46 10 10 5 52 11 92 12 84 3 80 5 278 -132 140 -97 192 -141 450
-380 145 -134 348 -367 443 -508 29 -43 90 -103 101 -99 20 6 18 25 -9 56 -14
17 -38 55 -53 84 -97 184 -124 230 -195 325 -125 170 -262 319 -372 405 -164
128 -215 165 -257 187 -48 25 -67 54 -49 72 20 20 279 -12 427 -52 22 -6 56
-15 75 -20 122 -32 427 -179 495 -239 11 -9 32 -25 47 -34 14 -9 37 -34 50
-56 12 -22 38 -66 57 -97 19 -31 53 -103 77 -158 23 -56 63 -150 89 -211 64
-149 134 -352 128 -373 -6 -24 -24 -46 -48 -60 -19 -11 -18 -11 7 -12 15 0 30
5 33 11 16 25 38 0 61 -71 27 -85 79 -302 88 -371 4 -26 14 -55 22 -65 14 -18
15 -17 10 16 -25 186 -47 300 -100 510 -53 210 -56 225 -56 285 0 110 -35 266
-90 405 -83 211 -152 331 -272 475 -16 18 -28 42 -28 53 0 14 -8 22 -22 24
-12 2 -36 23 -55 48 -18 25 -42 57 -53 72 -38 50 -172 307 -165 318 13 22 43
7 130 -64 148 -121 268 -252 337 -368 22 -38 44 -68 49 -68 13 0 12 4 -30 93
-34 73 -100 181 -177 286 -33 47 -223 241 -235 241 -5 0 -26 15 -46 33 -21 19
-76 59 -123 90 -90 59 -115 83 -171 160 -19 27 -53 73 -76 102 -24 30 -63 85
-89 121 -25 37 -64 90 -87 118 -74 88 -386 399 -468 466 -44 36 -97 79 -117
96 -67 56 -426 278 -527 326 -63 29 -106 39 -73 15z m916 -1085 c2 -7 -6 -12
-17 -12 -21 0 -27 11 -14 24 9 9 26 2 31 -12z m-606 -43 c9 -5 43 -9 74 -9
125 0 259 -43 380 -121 33 -21 65 -39 70 -40 5 0 29 -16 54 -34 25 -19 77 -53
115 -76 39 -23 79 -48 90 -55 11 -8 61 -41 110 -73 182 -119 304 -208 393
-287 36 -33 79 -70 96 -83 57 -45 132 -153 207 -299 25 -49 31 -67 22 -80 -16
-26 -36 -25 -74 2 -183 130 -496 262 -699 296 -41 7 -91 16 -110 21 -19 5 -58
9 -87 9 -28 0 -64 5 -80 11 -15 7 -70 11 -120 10 -89 -1 -95 0 -170 38 -121
62 -187 89 -333 138 -273 90 -390 115 -775 163 -99 13 -252 12 -260 -1 -4 -6
-5 -12 -3 -14 2 -2 59 -6 128 -10 69 -3 148 -10 175 -15 106 -19 214 -43 305
-66 190 -50 240 -65 287 -85 26 -11 75 -30 108 -41 106 -36 225 -98 225 -118
0 -10 -6 -22 -12 -27 -15 -11 -79 -30 -128 -38 -55 -8 -109 -61 -123 -119 -18
-68 -35 -77 -94 -45 -26 14 -68 31 -93 39 -25 7 -49 17 -54 22 -6 4 -19 8 -30
8 -18 0 -58 11 -111 30 -54 19 -93 30 -113 30 -11 0 -24 5 -27 10 -3 6 -21 10
-40 10 -19 0 -36 4 -39 9 -3 5 -23 11 -43 14 -21 3 -58 10 -83 16 -44 11 -106
24 -205 43 -79 15 -184 29 -262 34 -44 3 -76 11 -83 20 -7 7 -14 44 -16 81 -3
38 -6 81 -9 96 -6 38 26 87 116 172 138 131 403 289 647 386 42 17 97 35 122
39 58 10 530 0 552 -11z m778 1 c0 -11 -6 -20 -14 -20 -18 0 -29 16 -21 30 11
18 35 11 35 -10z m187 -236 c128 -67 164 -95 205 -158 39 -61 46 -98 18 -104
-9 -1 -45 24 -80 58 -35 33 -69 60 -75 60 -6 0 -22 12 -36 26 -13 14 -37 33
-54 41 -53 27 -105 74 -105 94 0 30 49 24 127 -17z m-3980 -46 c11 -13 38 -49
59 -81 l38 -59 -24 -46 c-14 -25 -36 -54 -50 -64 -14 -10 -74 -27 -135 -39
-60 -11 -128 -25 -150 -30 -22 -6 -58 -15 -80 -21 -140 -34 -323 -86 -347 -99
-10 -5 -25 -9 -33 -9 -46 0 -394 -132 -612 -232 -34 -15 -71 -28 -83 -28 -28
0 -80 28 -80 43 0 12 30 39 69 61 10 6 49 32 87 57 38 25 110 68 159 96 89 50
456 233 468 233 4 0 30 11 59 24 53 24 132 55 243 96 367 136 375 138 412 98z
m4908 -1176 c1 -4 6 -17 13 -29 7 -13 9 -23 5 -23 -9 0 -33 48 -33 64 0 10 15
-1 15 -12z m59 -94 c21 -51 29 -98 17 -98 -6 0 -11 9 -11 20 0 11 -5 20 -10
20 -14 0 -39 60 -33 77 9 22 23 14 37 -19z m46 -148 c0 -5 -4 -10 -10 -10 -5
0 -10 5 -10 10 0 6 5 10 10 10 6 0 10 -4 10 -10z"/>
<path d="M9291 5491 c-1 -204 2 -252 12 -243 15 16 16 313 0 422 -9 66 -11 46
-12 -179z"/>
</g>
</svg>
